# AST/ASF file generated using VICON BodyLanguage
# -----------------------------------------------
:version 1.10
:name VICON
:units
  mass 1.0
  length 0.45
  angle deg
:documentation
   .ast/.asf automatically generated from VICON data using
   VICON BodyBuilder and BodyLanguage model FoxedUp or BRILLIANT.MOD
:root
   order TX TY TZ RX RY RZ
   axis XYZ
   position 0 0 0  
   orientation 0 0 0 
:bonedata
  begin
     id 1 
     name lhipjoint
     direction 0.561001 -0.76473 0.316963 
     length 2.4722 
     axis 0 0 0  XYZ
  end
  begin
     id 2 
     name lfemur
     direction 0.34202 -0.939693 0  
     length 7.59403  
     axis 0 0 20  XYZ
    dof rx ry rz
    limits (-160.0 20.0)
           (-70.0 70.0)
           (-60.0 70.0)
  end
  begin
     id 3 
     name ltibia
     direction 0.34202 -0.939693 0   
     length 7.89655   
     axis 0 0 20   XYZ
    dof rx
    limits (-10.0 170.0)
  end
  begin
     id 4 
     name lfoot
     direction 0.061296 -0.168409 0.98381   
     length 2.73287   
     axis -90 7.62852e-016 20   XYZ
    dof rx rz
    limits (-45.0 90.0)
           (-70.0 20.0)
  end
  begin
     id 5 
     name ltoes
     direction 1.53547e-011 -4.21984e-011 1   
     length 1.37057   
     axis -90 7.62852e-016 20   XYZ
    dof rx
    limits (-90.0 20.0)
  end
  begin
     id 6 
     name rhipjoint
     direction -0.559611 -0.765599 0.317323   
     length 2.46939  
     axis 0 0 0  XYZ 
  end
  begin
     id 7 
     name rfemur
     direction -0.34202 -0.939693 0   
     length 7.53712   
     axis 0 0 -20   XYZ
    dof rx ry rz
    limits (-160.0 20.0)
           (-70.0 70.0)
           (-70.0 60.0)
  end
  begin
     id 8 
     name rtibia
     direction -0.34202 -0.939693 0   
     length 8.12549   
     axis 0 0 -20   XYZ
    dof rx
    limits (-10.0 170.0)
 end
 begin
     id 9 
     name rfoot
     direction -0.066984 -0.184037 0.980634   
     length 2.67541  
     axis -90 -7.62852e-016 -20   XYZ
    dof rx rz
    limits (-45.0 90.0)
           (-20.0 70.0)
  end
  begin
     id 10 
     name rtoes
     direction -1.53549e-011 -4.21786e-011 1   
     length 1.34085   
     axis -90 -7.62852e-016 -20   XYZ
    dof rx
    limits (-90.0 20.0)
  end
  begin
     id 11 
     name lowerback
     direction -0.0522728 0.992594 -0.109658   
     length 2.05633   
     axis 0 0 0   XYZ
    dof rx ry rz
    limits (-20.0 45.0)
           (-30.0 30.0)
           (-30.0 30.0)
  end
  begin
     id 12 
     name upperback
     direction 0.00589338 0.999977 0.00335704   
     length 2.05845   
     axis 0 0 0   XYZ
    dof rx ry rz
    limits (-20.0 45.0)
           (-30.0 30.0)
           (-30.0 30.0)
  end
  begin
     id 13 
     name thorax
     direction 0.0292928 0.998059 0.0549487   
     length 2.09281   
     axis 0 0 0   XYZ
    dof rx ry rz
    limits (-20.0 45.0)
           (-30.0 30.0)
           (-30.0 30.0)
  end
  begin
     id 14 
     name lowerneck
     direction 0.0356368 0.980775 0.191858   
     length 1.84767   
     axis 0 0 0   XYZ
    dof rx ry rz
    limits (-20.0 45.0)
           (-30.0 30.0)
           (-30.0 30.0)
  end
  begin
     id 15 
     name upperneck
     direction -0.0227605 0.98931 -0.14404   
     length 1.89582   
     axis 0 0 0   XYZ
    dof rx ry rz
    limits (-20.0 45.0)
           (-30.0 30.0)
           (-30.0 30.0)
  end
  begin
     id 16
     name head
     direction -0.00932985 0.997511 -0.0698904  
     length 1.90213  
     axis 0 0 0   XYZ
    dof rx ry rz
    limits (-20.0 45.0)
           (-30.0 30.0)
           (-30.0 30.0)
  end
  begin
     id 17 
     name lclavicle
     direction 0.873442 0.479511 0.0846686  
     length 3.41193  
     axis 0 0 0   XYZ
    dof ry rz
    limits (-20.0 10.0)
           (0.0 20.0)
  end
  begin
     id 18 
     name lhumerus
     direction 1 -4.4897e-011 -5.62117e-018   
     length 5.59864   
     axis 180 -30 -90   XYZ
    dof rx ry rz
    limits (-60.0 90.0)
           (-90.0 90.0)
           (-90.0 90.0)
  end
  begin
     id 19
     name lradius
     direction 1 -4.48966e-011 -6.26295e-027   
     length 3.59542   
     axis 180 -30 -90   XYZ
    dof rx
    limits (-10.0 170.0)
  end
  begin
     id 20
     name lwrist
     direction 1 -4.48947e-011 -1.74096e-026   
     length 1.79771   
     axis 1.04567e-014 90 90   XYZ
    dof ry
    limits (-180.0 0.0)
 end
  begin
     id 21 
     name lhand
     direction 1 -4.49085e-011 -3.48469e-026   
     length 0.572014   
     axis 2.22196e-014 90 90   XYZ
    dof rx rz
    limits (-90.0 90.0)
           (-45.0 45.0)
  end
  begin
     id 22 
     name lfingers
     direction 1 -4.48884e-011 -6.96135e-026   
     length 0.461173   
     axis 4.44383e-014 90 90   XYZ
    dof rx
    limits (0.0 90.0)
  end
  begin
     id 23
     name lthumb
     direction 0.707107 -6.34976e-011 0.707107   
     length 0.662154   
     axis -90 45 -5.4397e-014   XYZ
    dof rx rz
    limits (-45.0 45.0)
           (-45.0 45.0)
  end
  begin
     id 24 
     name rclavicle
     direction -0.890242 0.443271 0.104786   
     length 3.46753  
     axis 0 0 0   XYZ 
    dof ry rz
    limits (-10.0 20.0)
           (-20.0 0.0)
  end
  begin
     id 25 
     name rhumerus
     direction -1 -4.48963e-011 -5.41723e-018  
     length 5.8094   
     axis 180 30 90   XYZ
    dof rx ry rz
    limits (-90.0 60.0)
           (-90.0 90.0)
           (-90.0 90.0)
  end
  begin
     id 26 
     name rradius
     direction -1 -4.48958e-011 -6.51059e-027   
     length 3.66953   
     axis 180 30 90   XYZ
    dof rx
    limits (-10.0 170.0)
  end
  begin
     id 27 
     name rwrist
     direction -1 -4.48975e-011 -1.74124e-026   
     length 1.83476   
     axis 1.04567e-014 -90 -90   XYZ
    dof ry
    limits (-180.0 0.0)
  end
  begin
     id 28
     name rhand
     direction -1 -4.49013e-011 -3.48326e-026   
     length 0.57843   
     axis 2.22196e-014 -90 -90   XYZ
    dof rx rz
    limits (-90.0 90.0)
           (-45.0 45.0)
  end
  begin
     id 29
     name rfingers
     direction -1 -4.49023e-011 -6.9669e-026   
     length 0.466345   
     axis 4.44383e-014 -90 -90   XYZ
    dof rx
    limits (0.0 90.0)
  end
  begin
     id 30
     name rthumb
     direction -0.707107 -6.34926e-011 0.707107   
     length 0.669581   
     axis -90 -45 5.4397e-014   XYZ
    dof rx rz
    limits (-45.0 45.0)
           (-45.0 45.0)
  end
:hierarchy
  begin
    root lhipjoint rhipjoint lowerback
    lhipjoint lfemur
    lfemur ltibia
    ltibia lfoot
    lfoot ltoes
    rhipjoint rfemur
    rfemur rtibia
    rtibia rfoot
    rfoot rtoes
    lowerback upperback
    upperback thorax
    thorax lowerneck lclavicle rclavicle
    lowerneck upperneck
    upperneck head
    lclavicle lhumerus
    lhumerus lradius
    lradius lwrist
    lwrist lhand lthumb
    lhand lfingers
    rclavicle rhumerus
    rhumerus rradius
    rradius rwrist
    rwrist rhand rthumb
    rhand rfingers
  end

#!OML:ASF H:\SkateBoarding\Project 1\Capture day 1\Session 1\Skater.ASF
:FULLY-SPECIFIED
:DEGREES
80
root 6.61026 17.4996 8.72618 177.808 5.19426 177.205
lowerback 13.6101 0.980347 -6.67751
upperback 1.82761 0.531103 -0.455657
thorax -5.74624 0.504088 3.1843
lowerneck -26.2375 2.86864 4.71937
upperneck 15.7572 2.74523 -2.59615
head 9.33694 1.26634 -1.24825
rclavicle -2.45996e-015 1.66979e-014
rhumerus 31.5799 4.57339 -60.1038
rradius 82.8265
rwrist -9.74192
rhand 16.0337 -41.1644
rfingers 7.12502
rthumb 40.8238 -66.1365
lclavicle -2.45996e-015 1.66979e-014
lhumerus 31.2321 2.4287 59.0905
lradius 82.5386
lwrist 8.4908
lhand 11.7099 49.1277
lfingers 7.12502
lthumb 36.7463 75.2573
rfemur -23.2843 -7.43511 9.18291
rtibia 49.5658
rfoot -15.44 15.4152
rtoes -11.1172
lfemur -20.5993 8.72397 -13.2043
ltibia 45.9918
lfoot -18.3937 -10.1456
ltoes -10.827
81
root 6.60989 17.4997 8.72562 177.804 5.20606 177.196
lowerback 13.6271 0.993444 -6.66713
upperback 1.81031 0.546552 -0.457305
thorax -5.77569 0.512188 3.17363
lowerneck -26.2471 2.87408 4.72598
upperneck 15.7669 2.74864 -2.59069
head 9.3421 1.26896 -1.24681
rclavicle 1.05853e-014 9.93923e-016
rhumerus 31.5465 4.5632 -60.085
rradius 82.8135
rwrist -9.68084
rhand 15.9806 -41.1541
rfingers 7.12502
rthumb 40.7739 -66.142
lclavicle 1.05853e-014 9.93923e-016
lhumerus 31.2101 2.36831 59.0829
lradius 82.5011
lwrist 8.47993
lhand 11.6166 49.1162
lfingers 7.12502
lthumb 36.658 75.2683
rfemur -23.2916 -7.43436 9.17059
rtibia 49.5812
rfoot -15.445 15.4182
rtoes -11.1717
lfemur -20.5987 8.73282 -13.2151
ltibia 45.9994
lfoot -18.408 -10.1324
ltoes -10.8881
82
root 6.6105 17.4986 8.72574 177.803 5.23085 177.245
lowerback 13.6438 1.01068 -6.61689
upperback 1.78614 0.572739 -0.438783
thorax -5.81344 0.524585 3.15989
lowerneck -26.0883 2.88548 4.86842
upperneck 15.6406 2.75388 -2.75172
head 9.27616 1.26197 -1.32613
rclavicle 1.19022e-014 -2.66371e-014
rhumerus 31.4943 4.56974 -60.0427
rradius 82.8158
rwrist -9.6433
rhand 15.9296 -41.1335
rfingers 7.12502
rthumb 40.7259 -66.1364
lclavicle 1.19022e-014 -2.66371e-014
lhumerus 31.163 2.29497 59.0776
lradius 82.4738
lwrist 8.53586
lhand 11.6144 49.0812
lfingers 7.12502
lthumb 36.6559 75.2339
rfemur -23.3014 -7.40416 9.23116
rtibia 49.5922
rfoot -15.4657 15.4035
rtoes -11.2396
lfemur -20.6043 8.74971 -13.1515
ltibia 46.029
lfoot -18.4026 -10.155
ltoes -10.8237
83
root 6.60921 17.4974 8.72537 177.785 5.24314 177.197
lowerback 13.6677 1.0241 -6.6365
upperback 1.77051 0.583874 -0.452456
thorax -5.84457 0.5315 3.15407
lowerneck -26.2106 2.88816 4.71108
upperneck 15.7671 2.77036 -2.5693
head 9.3364 1.28089 -1.23377
rclavicle -2.41026e-015 -1.47101e-014
rhumerus 31.4615 4.57948 -60.0069
rradius 82.8072
rwrist -9.62349
rhand 15.8959 -41.1058
rfingers 7.12502
rthumb 40.6943 -66.1186
lclavicle -2.41026e-015 -1.47101e-014
lhumerus 31.1151 2.23584 59.0514
lradius 82.4617
lwrist 8.60798
lhand 11.5924 49.1047
lfingers 7.12502
lthumb 36.6351 75.2626
rfemur -23.2985 -7.43203 9.16705
rtibia 49.6047
rfoot -15.4222 15.4404
rtoes -11.2112
lfemur -20.592 8.74964 -13.2098
ltibia 46.0395
lfoot -18.4532 -10.1227
ltoes -10.9033
84
root 6.60875 17.4963 8.72657 177.823 5.27807 177.309
lowerback 13.6747 1.04812 -6.49834
upperback 1.73158 0.630644 -0.42054
thorax -5.89429 0.551696 3.10107
lowerneck -26.1382 2.87875 4.68331
upperneck 15.7223 2.76503 -2.54303
head 9.30752 1.28021 -1.22131
rclavicle 3.67752e-015 -1.33186e-014
rhumerus 31.3921 4.5562 -59.9683
rradius 82.7931
rwrist -9.6109
rhand 15.8375 -41.0758
rfingers 7.12502
rthumb 40.6394 -66.1057
lclavicle 3.67752e-015 -1.33186e-014
lhumerus 31.0778 2.12503 59.0636
lradius 82.4415
lwrist 8.65208
lhand 11.5923 49.0566
lfingers 7.12502
lthumb 36.6349 75.2145
rfemur -23.3451 -7.39391 9.3038
rtibia 49.6101
rfoot -15.4419 15.4291
rtoes -11.2378
lfemur -20.6416 8.76609 -13.0814
ltibia 46.0743
lfoot -18.4431 -10.1418
ltoes -10.8414
85
root 6.60795 17.4966 8.72354 177.768 5.27055 177.154
lowerback 13.6806 1.06341 -6.63523
upperback 1.73376 0.630405 -0.459588
thorax -5.89589 0.555412 3.13675
lowerneck -26.1021 2.88044 4.71781
upperneck 15.6912 2.76216 -2.5704
head 9.2914 1.27798 -1.23707
rclavicle -1.93318e-014 -1.19271e-015
rhumerus 31.3616 4.56255 -59.9524
rradius 82.7744
rwrist -9.63805
rhand 15.8295 -41.046
rfingers 7.12502
rthumb 40.6319 -66.0782
lclavicle -1.93318e-014 -1.19271e-015
lhumerus 31.0162 2.07284 59.038
lradius 82.4572
lwrist 8.7718
lhand 11.6347 49.1252
lfingers 7.12502
lthumb 36.6751 75.273
rfemur -23.2928 -7.44376 9.11043
rtibia 49.6177
rfoot -15.3832 15.4876
rtoes -11.1623
lfemur -20.5768 8.73874 -13.2593
ltibia 46.0789
lfoot -18.5086 -10.1246
ltoes -10.944
86
root 6.60633 17.4948 8.7255 177.806 5.31268 177.265
lowerback 13.704 1.1012 -6.47797
upperback 1.80164 0.711298 -0.419964
thorax -5.8435 0.59044 3.0751
lowerneck -26.3478 2.85534 4.79209
upperneck 15.6258 2.71991 -2.71485
head 9.31076 1.24424 -1.3046
rclavicle -1.31695e-014 -1.05356e-014
rhumerus 31.4808 4.41298 -59.8388
rradius 82.7621
rwrist -9.65633
rhand 15.7326 -41.0215
rfingers 7.12502
rthumb 40.5408 -66.0821
lclavicle -1.31695e-014 -1.05356e-014
lhumerus 31.1845 2.04916 59.1128
lradius 82.4426
lwrist 8.83244
lhand 11.627 49.1041
lfingers 7.12502
lthumb 36.6678 75.2537
rfemur -23.3455 -7.42951 9.24152
rtibia 49.6218
rfoot -15.3612 15.4867
rtoes -11.1173
lfemur -20.6256 8.76085 -13.1381
ltibia 46.1048
lfoot -18.5117 -10.1262
ltoes -10.8843
87
root 6.60724 17.4954 8.7256 177.792 5.35817 177.292
lowerback 13.7248 1.12322 -6.45475
upperback 1.79126 0.741556 -0.404558
thorax -5.86923 0.605335 3.07243
lowerneck -26.4991 2.86415 4.6479
upperneck 15.7617 2.74239 -2.54811
head 9.37989 1.26479 -1.21869
rclavicle 4.12478e-015 2.26615e-014
rhumerus 31.4524 4.42971 -59.8199
rradius 82.7531
rwrist -9.64839
rhand 15.6865 -40.9905
rfingers 7.12502
rthumb 40.4975 -66.0645
lclavicle 4.12478e-015 2.26615e-014
lhumerus 31.1297 2.00289 59.1016
lradius 82.4555
lwrist 8.85755
lhand 11.6666 49.1155
lfingers 7.12502
lthumb 36.7053 75.2556
rfemur -23.3445 -7.40955 9.2812
rtibia 49.6236
rfoot -15.3671 15.4848
rtoes -11.2171
lfemur -20.5976 8.78414 -13.0954
ltibia 46.1015
lfoot -18.5054 -10.1199
ltoes -10.9265
88
root 6.60444 17.4945 8.72542 177.789 5.34217 177.207
lowerback 13.7279 1.12464 -6.49891
upperback 1.78354 0.735385 -0.42682
thorax -5.8787 0.603722 3.07475
lowerneck -26.3878 2.88234 4.85532
upperneck 15.6312 2.74272 -2.76607
head 9.32197 1.25245 -1.32897
rclavicle 5.14355e-015 6.95746e-016
rhumerus 31.438 4.44995 -59.7998
rradius 82.7559
rwrist -9.5726
rhand 15.5849 -40.9525
rfingers 7.12502
rthumb 40.4019 -66.056
lclavicle 5.14355e-015 6.95746e-016
lhumerus 31.0783 1.96444 59.074
lradius 82.4409
lwrist 8.89353
lhand 11.6836 49.123
lfingers 7.12502
lthumb 36.7214 75.259
rfemur -23.3544 -7.48928 9.16628
rtibia 49.6413
rfoot -15.2907 15.5476
rtoes -11.1546
lfemur -20.6011 8.73934 -13.2082
ltibia 46.1068
lfoot -18.5493 -10.1195
ltoes -10.863
89
root 6.60457 17.495 8.72474 177.774 5.37715 177.223
lowerback 13.7385 1.13467 -6.48871
upperback 1.7785 0.749302 -0.40802
thorax -5.89155 0.610555 3.08624
lowerneck -26.5555 2.89359 4.6825
upperneck 15.7742 2.77397 -2.57934
head 9.39587 1.27757 -1.22996
rclavicle -3.2054e-015 1.42131e-014
rhumerus 31.4305 4.50627 -59.7615
rradius 82.7474
rwrist -9.4584
rhand 15.4544 -40.85
rfingers 7.12502
rthumb 40.2792 -65.9912
lclavicle -3.2054e-015 1.42131e-014
lhumerus 30.9971 1.96153 59.0658
lradius 82.455
lwrist 8.88552
lhand 11.7837 49.2507
lfingers 7.12502
lthumb 36.8161 75.3625
rfemur -23.3455 -7.44784 9.18785
rtibia 49.6518
rfoot -15.3294 15.5265
rtoes -11.2677
lfemur -20.5686 8.7552 -13.1843
ltibia 46.0975
lfoot -18.5535 -10.115
ltoes -10.8361
